<svg width="16" height="16" viewBox="0 0 16 16" fill="none" xmlns="http://www.w3.org/2000/svg">
<g clip-path="url(#clip0_1_1116)">
<path d="M14.8381 0.0109272L4.03539 0.0108032C3.72702 0.0108031 3.43689 0.131669 3.21778 0.350784C2.99842 0.570143 2.8778 0.860271 2.87767 1.16852L2.8778 2.14943C2.87767 2.45743 2.99842 2.74793 3.21766 2.96716C3.43677 3.18628 3.7342 3.31396 4.0422 3.31383L10.3512 3.32077L0.340214 13.3318C-0.11115 13.7831 -0.114432 14.4931 0.337054 14.9446L1.03051 15.6381C1.482 16.0895 2.22763 16.1219 2.67899 15.6705L12.7257 5.62379L12.7147 11.9861C12.7148 12.2943 12.8299 12.5792 13.0492 12.7984C13.2682 13.0174 13.556 13.1355 13.8641 13.1355L14.8434 13.134C15.1518 13.134 15.4412 13.0127 15.6606 12.7933C15.8797 12.5742 16.0001 12.2836 16.0001 11.9752L16.0001 1.17265C15.9999 0.863435 15.8785 0.571971 15.6584 0.353099C15.4387 0.132402 15.1472 0.0106841 14.8381 0.0109272Z" fill="#FB8B4A"/>
</g>
<defs>
<clipPath id="clip0_1_1116">
<rect width="16" height="16" fill="white"/>
</clipPath>
</defs>
</svg>
